# File created by Blade
# Date/Time:  Thu Sep 25 17:54:10 2014
# Frame Rate: 120.000 fps
#------------------------------------------------------
:FULLY-SPECIFIED
:DEGREES
1692
root -0.220588 32.563671 -6.648180 23.931382 0.497876 -0.106978
Spine -28.277635 21.967209 -9.488869
Head -18.085129 -29.207798 -11.700574
LeftShoulder -5.594083 -13.911776 44.096665
LeftArm 59.470068 10.932951 -96.098339
LeftForeArm 2.486356 -0.000000 132.358340
LeftHand -18.181602 -0.000000 -36.443707
LeftHandThumb1 -26.253704 0.000000 33.147579
RightShoulder -8.473118 55.436687 -71.105653
RightArm 86.673656 -23.180750 90.633589
RightForeArm -8.805572 -0.000000 110.712324
RightHand 3.600375 -0.000000 7.470866
RightHandThumb1 -24.326973 -0.000000 -32.862282
LeftUpLeg -18.867087 4.637991 0.425157
LeftLeg -0.784678 -0.000000 0.000000
LeftFoot -4.731656 -1.565247 -2.285963
LeftToeBase 3.385904 -0.000000 -0.000000
RightUpLeg -18.683428 -8.145467 4.564750
RightLeg -1.861960 -0.000000 0.000000
RightFoot -7.277603 0.062816 11.136197
RightToeBase 16.574573 -0.000000 -0.000000
1693
root -0.227173 32.562850 -6.644581 23.984063 0.492174 -0.105772
Spine -28.375117 22.015396 -9.570802
Head -17.818831 -29.184951 -11.765024
LeftShoulder -5.574675 -13.784651 44.038355
LeftArm 59.424205 11.071480 -96.209834
LeftForeArm 2.688131 -0.000000 132.344685
LeftHand -18.223826 -0.000000 -36.395502
LeftHandThumb1 -26.253704 0.000000 33.147579
RightShoulder -8.265559 55.300948 -70.921090
RightArm 86.823044 -23.273702 90.563273
RightForeArm -9.087643 -0.000000 110.760423
RightHand 3.520313 -0.000000 7.621711
RightHandThumb1 -24.326973 -0.000000 -32.862282
LeftUpLeg -18.916874 4.670869 0.418957
LeftLeg -0.778477 -0.000000 0.000000
LeftFoot -4.742051 -1.583576 -2.297414
LeftToeBase 3.409453 -0.000000 -0.000000
RightUpLeg -18.718676 -8.078923 4.557756
RightLeg -1.875033 -0.000000 0.000000
RightFoot -7.292491 0.021989 11.125045
RightToeBase 16.576974 -0.000000 -0.000000
1694
root -0.233119 32.561667 -6.638943 24.003624 0.506666 -0.104761
Spine -28.433669 22.028705 -9.612031
Head -17.511073 -29.100924 -11.851179
LeftShoulder -5.550834 -13.629970 43.984325
LeftArm 59.349881 11.197209 -96.348835
LeftForeArm 2.798443 -0.000000 132.364914
LeftHand -18.271724 -0.000000 -36.492385
LeftHandThumb1 -26.253704 0.000000 33.147579
RightShoulder -8.063393 55.205709 -70.739526
RightArm 86.946071 -23.397603 90.509928
RightForeArm -9.361770 -0.000000 110.812145
RightHand 3.439325 -0.000000 7.683964
RightHandThumb1 -24.326973 -0.000000 -32.862282
LeftUpLeg -18.924993 4.654371 0.432859
LeftLeg -0.783557 -0.000000 0.000000
LeftFoot -4.752580 -1.566142 -2.284481
LeftToeBase 3.396593 -0.000000 -0.000000
RightUpLeg -18.724718 -8.056740 4.561283
RightLeg -1.876977 -0.000000 0.000000
RightFoot -7.308281 0.008836 11.199299
RightToeBase 16.543815 -0.000000 -0.000000
1695
root -0.238507 32.560298 -6.634481 24.046034 0.535663 -0.100043
Spine -28.516680 22.049352 -9.677435
Head -17.248433 -29.047887 -11.904266
LeftShoulder -5.535836 -13.509097 43.930915
LeftArm 59.292889 11.377341 -96.446568
LeftForeArm 2.899743 -0.000000 132.353291
LeftHand -18.237005 -0.000000 -36.671194
LeftHandThumb1 -26.253704 0.000000 33.147579
RightShoulder -7.876229 55.017219 -70.540291
RightArm 87.142479 -23.521888 90.439177
RightForeArm -9.614558 -0.000000 110.845995
RightHand 3.389185 -0.000000 7.950697
RightHandThumb1 -24.326973 -0.000000 -32.862282
LeftUpLeg -18.965625 4.644563 0.438892
LeftLeg -0.779562 -0.000000 0.000000
LeftFoot -4.764449 -1.567199 -2.248874
LeftToeBase 3.402927 -0.000000 -0.000000
RightUpLeg -18.772204 -8.078760 4.587920
RightLeg -1.853902 -0.000000 0.000000
RightFoot -7.330196 -0.044076 11.045940
RightToeBase 16.538682 -0.000000 -0.000000
1696
root -0.244608 32.558740 -6.629420 24.073376 0.559163 -0.099766
Spine -28.582659 22.080071 -9.733118
Head -16.964347 -28.980391 -11.955631
LeftShoulder -5.513852 -13.383012 43.857176
LeftArm 59.243617 11.560758 -96.524510
LeftForeArm 2.903252 -0.000000 132.337784
LeftHand -18.168839 -0.000000 -36.835319
LeftHandThumb1 -26.253704 0.000000 33.147579
RightShoulder -7.722882 54.891812 -70.387473
RightArm 87.262661 -23.660754 90.406553
RightForeArm -9.775981 -0.000000 110.890123
RightHand 3.271924 -0.000000 7.975177
RightHandThumb1 -24.326973 -0.000000 -32.862282
LeftUpLeg -18.989358 4.673014 0.436503
LeftLeg -0.778124 -0.000000 0.000000
LeftFoot -4.771663 -1.598708 -2.240863
LeftToeBase 3.361788 -0.000000 -0.000000
RightUpLeg -18.781237 -8.031469 4.583714
RightLeg -1.863093 -0.000000 0.000000
RightFoot -7.341904 -0.093606 11.083583
RightToeBase 16.471994 -0.000000 -0.000000
1697
root -0.250454 32.557328 -6.624390 24.114070 0.592565 -0.101300
Spine -28.667201 22.106154 -9.790790
Head -16.672834 -28.905915 -12.020594
LeftShoulder -5.499769 -13.279206 43.790352
LeftArm 59.159032 11.788092 -96.622992
LeftForeArm 3.025976 -0.000000 132.339588
LeftHand -18.244064 0.000000 -37.040966
LeftHandThumb1 -26.253704 0.000000 33.147579
RightShoulder -7.496005 54.647135 -70.163902
RightArm 87.509292 -23.804678 90.344009
RightForeArm -9.947866 -0.000000 110.917994
RightHand 3.201000 0.000000 8.152790
RightHandThumb1 -24.326973 -0.000000 -32.862282
LeftUpLeg -19.030396 4.672149 0.447827
LeftLeg -0.768034 -0.000000 0.000000
LeftFoot -4.789567 -1.612590 -2.230138
LeftToeBase 3.374559 -0.000000 -0.000000
RightUpLeg -18.823726 -8.029564 4.601948
RightLeg -1.833271 -0.000000 0.000000
RightFoot -7.388969 -0.105113 11.063023
RightToeBase 16.473932 -0.000000 -0.000000
1698
root -0.255642 32.555634 -6.620202 24.164662 0.632338 -0.103649
Spine -28.763062 22.122208 -9.844412
Head -16.343136 -28.771833 -12.103599
LeftShoulder -5.464450 -13.087814 43.700641
LeftArm 59.156525 12.002541 -96.686779
LeftForeArm 3.059294 -0.000000 132.328313
LeftHand -18.203578 -0.000000 -37.157343
LeftHandThumb1 -26.253704 0.000000 33.147579
RightShoulder -7.242662 54.342254 -69.921604
RightArm 87.822308 -23.952766 90.251172
RightForeArm -10.149950 -0.000000 110.950703
RightHand 3.124306 -0.000000 8.359102
RightHandThumb1 -24.326973 -0.000000 -32.862282
LeftUpLeg -19.085107 4.672026 0.459060
LeftLeg -0.755065 -0.000000 0.000000
LeftFoot -4.811848 -1.637994 -2.210444
LeftToeBase 3.374144 -0.000000 -0.000000
RightUpLeg -18.866997 -7.993987 4.611468
RightLeg -1.813156 -0.000000 0.000000
RightFoot -7.449041 -0.123497 11.116629
RightToeBase 16.526184 -0.000000 -0.000000
1699
root -0.259218 32.554026 -6.615199 24.197825 0.670599 -0.097369
Spine -28.844496 22.136240 -9.901076
Head -16.010493 -28.636181 -12.142644
LeftShoulder -5.417376 -12.905551 43.631503
LeftArm 59.132144 12.256219 -96.751401
LeftForeArm 3.119039 -0.000000 132.338753
LeftHand -18.277867 -0.000000 -37.352319
LeftHandThumb1 -26.253704 0.000000 33.147579
RightShoulder -7.026809 54.107435 -69.700646
RightArm 88.001021 -24.123542 90.207388
RightForeArm -10.376130 -0.000000 110.976906
RightHand 3.085069 -0.000000 8.700215
RightHandThumb1 -24.326973 -0.000000 -32.862282
LeftUpLeg -19.118723 4.656572 0.462122
LeftLeg -0.747857 -0.000000 0.000000
LeftFoot -4.826655 -1.638461 -2.209241
LeftToeBase 3.370820 -0.000000 -0.000000
RightUpLeg -18.891733 -7.978897 4.611924
RightLeg -1.807286 -0.000000 0.000000
RightFoot -7.435246 -0.135627 11.218246
RightToeBase 16.389336 -0.000000 -0.000000
1700
root -0.263065 32.552482 -6.610408 24.234369 0.713891 -0.098600
Spine -28.930701 22.151290 -9.949207
Head -15.673571 -28.502807 -12.196398
LeftShoulder -5.351934 -12.636842 43.531013
LeftArm 59.181848 12.492467 -96.829202
LeftForeArm 3.064107 -0.000000 132.317896
LeftHand -18.253824 0.000000 -37.415678
LeftHandThumb1 -26.253704 0.000000 33.147579
RightShoulder -6.825780 53.910795 -69.535563
RightArm 88.097456 -24.268773 90.198511
RightForeArm -10.597248 -0.000000 111.041915
RightHand 2.958700 -0.000000 8.987483
RightHandThumb1 -24.326973 -0.000000 -32.862282
LeftUpLeg -19.154865 4.640233 0.476128
LeftLeg -0.743191 -0.000000 0.000000
LeftFoot -4.846800 -1.655798 -2.197954
LeftToeBase 3.382035 -0.000000 -0.000000
RightUpLeg -18.922574 -7.974070 4.625846
RightLeg -1.788134 -0.000000 0.000000
RightFoot -7.516373 -0.188638 11.086912
RightToeBase 16.511419 -0.000000 -0.000000
1701
root -0.266812 32.550650 -6.604270 24.263175 0.771505 -0.087697
Spine -29.015326 22.153491 -10.019056
Head -15.310212 -28.315073 -12.209165
LeftShoulder -5.294363 -12.418741 43.489678
LeftArm 59.153040 12.748124 -96.970573
LeftForeArm 2.923015 -0.000000 132.267129
LeftHand -18.097117 -0.000000 -37.448724
LeftHandThumb1 -26.253704 0.000000 33.147579
RightShoulder -6.669209 53.717929 -69.356889
RightArm 88.206778 -24.477627 90.200917
RightForeArm -10.802946 0.000000 111.148699
RightHand 2.798516 -0.000000 8.710122
RightHandThumb1 -24.326973 -0.000000 -32.862282
LeftUpLeg -19.182205 4.612012 0.486391
LeftLeg -0.730264 -0.000000 0.000000
LeftFoot -4.934842 -1.720813 -2.338428
LeftToeBase 3.636292 -0.000000 -0.000000
RightUpLeg -18.936184 -7.991552 4.634290
RightLeg -1.789140 -0.000000 0.000000
RightFoot -7.515843 -0.185631 11.218506
RightToeBase 16.380797 -0.000000 -0.000000
1702
root -0.271135 32.548967 -6.599368 24.291723 0.837077 -0.084571
Spine -29.091021 22.150513 -10.066632
Head -14.944581 -28.163919 -12.229241
LeftShoulder -5.215809 -12.108961 43.405854
LeftArm 59.201954 12.995679 -97.088730
LeftForeArm 2.761595 0.000000 132.250357
LeftHand -18.014437 -0.000000 -37.536422
LeftHandThumb1 -26.253704 0.000000 33.147579
RightShoulder -6.493217 53.521377 -69.176045
RightArm 88.321043 -24.652302 90.187087
RightForeArm -10.878817 -0.000000 111.221261
RightHand 2.640890 -0.000000 8.676942
RightHandThumb1 -24.326973 -0.000000 -32.862282
LeftUpLeg -19.222255 4.600281 0.493733
LeftLeg -0.712672 -0.000000 0.000000
LeftFoot -4.892354 -1.706809 -2.163297
LeftToeBase 3.391052 -0.000000 -0.000000
RightUpLeg -18.937431 -7.975136 4.641047
RightLeg -1.815770 -0.000000 0.000000
RightFoot -7.516240 -0.252463 11.185905
RightToeBase 16.313728 -0.000000 -0.000000
